
	<svg xmlns="http://www.w3.org/2000/svg" xmlns:xlink="http://www.w3.org/1999/xlink" version="1.1" width="512" height="512" viewBox="0 0 100 100">


		<defs>
			<linearGradient id="Gradient_1" gradientUnits="userSpaceOnUse" x1="50" y1="53" x2="50" y2="0" spreadMethod="pad">
<stop offset="0%" stop-color="#FFFFFF" stop-opacity="0.1"/>

<stop offset="100%" stop-color="#FFFFFF" stop-opacity="0.4"/>
</linearGradient><linearGradient id="Gradient_2" gradientUnits="userSpaceOnUse" x1="100" y1="50" x2="0" y2="50" spreadMethod="pad">
<stop offset="0%" stop-color="#FFFFFF" stop-opacity="0.1"/>

<stop offset="100%" stop-color="#FFFFFF" stop-opacity="0.4"/>
</linearGradient><linearGradient id="Gradient_3" gradientUnits="userSpaceOnUse" x1="0" y1="50" x2="100" y2="50" spreadMethod="pad">
<stop offset="0%" stop-color="#FFFFFF" stop-opacity="0.1"/>

<stop offset="100%" stop-color="#FFFFFF" stop-opacity="0.4"/>
</linearGradient><mask id="mask">
<path fill="#FFFFFF" stroke="none" d=" M 0 0 L 0 100 100 100 100 0 0 0 Z"/>
</mask><g id="gloss-top">
<path fill="url(#Gradient_1)" stroke="none" d=" M 100 53.1 L 100 0 0 0 0 53.1 100 53.1 Z"/>
</g><g id="gloss-right">
<path fill="url(#Gradient_2)" stroke="none" d=" M 100 100 L 100 0 0 0 100 100 Z"/>
</g><g id="gloss-left">
<path fill="url(#Gradient_3)" stroke="none" d=" M 0 0 L 0 100 100 0 0 0 Z"/>
</g>




			<g transform="scale(0.5483868376448284) translate(-58.823997497558594 -58.82349395751953)" id="picture"><path d="M207.988 60.83h32.824l-74.4 87.529 74.765 90.812h-33.189L150 167.688l-57.988 71.483H58.824l74.4-90.812-74.4-87.53h33.188L150 128.3l57.988-67.47z"/></g>

	<linearGradient id="picture-gradient" x1="0" y1="0" y2="1" x2="0" >
		<stop stop-color="#ffff60" offset="0%"/>
		<stop stop-color="#ff7706" offset="100%"/>
	</linearGradient>

		</defs>






			<g mask="url(#mask)">
				<g transform="
				        translate(
                                50 50
)
                            translate(0 0)  scale(0.525)
                            translate(
                                -50 -50
)">
						<use xlink:href="#picture" fill="url(#picture-gradient)"  />
				</g>
			</g>



			<use xlink:href="#gloss-left" opacity="1" />


	</svg>
